<svg width="146" height="146" viewBox="0 0 146 146" fill="none" xmlns="http://www.w3.org/2000/svg">
<path d="M112.629 130.564C101.61 141.13 86.9202 146.176 73.0073 143.116" stroke="white" stroke-width="4" stroke-miterlimit="10"/>
<path d="M126.35 114.774C122.494 120.786 117.876 126.324 112.629 130.573" stroke="white" stroke-width="4" stroke-miterlimit="10"/>
<path d="M109.825 15.1855C116.759 20.2133 122.842 26.9319 127.549 34.885" stroke="white" stroke-width="4" stroke-miterlimit="10"/>
<path d="M23.9722 29.9199C45.0043 0.943213 83.4867 -8.00297 109.825 15.1855" stroke="white" stroke-width="4" stroke-miterlimit="10"/>
<path d="M75.7826 143.823C56.9336 144.065 37.9737 136.944 24.4604 120.51C21.108 116.439 18.2144 111.859 15.7427 106.956" stroke="white" stroke-width="4" stroke-miterlimit="10"/>
<path d="M88.9403 25.0361L57.814 122.675" stroke="white" stroke-width="4" stroke-miterlimit="10"/>
<path d="M2 76.7794L52.6191 39.0176" stroke="white" stroke-width="4" stroke-miterlimit="10"/>
<path d="M2 74.2832L52.6191 112.036" stroke="white" stroke-width="4" stroke-miterlimit="10"/>
<path d="M144 79.5177L93.373 41.7559" stroke="white" stroke-width="4" stroke-miterlimit="10"/>
<path d="M144 77.0127L93.373 114.775" stroke="white" stroke-width="4" stroke-miterlimit="10"/>
</svg>
