<svg width="78" height="78" viewBox="0 0 78 78" fill="none" xmlns="http://www.w3.org/2000/svg">
<path d="M61.9129 69.3723C57.5685 73.0797 52.8371 75.394 47.6755 76.3197C42.0838 77.2454 36.9222 75.8568 32.1908 73.5426C24.0183 69.3769 17.9965 61.5084 16.2759 51.7885C14.5554 40.68 19.717 30.4972 28.3196 24.943C31.3305 23.0916 34.7716 21.703 38.6428 22.1659C49.396 23.5544 60.1493 33.2744 58.4288 45.3085C57.5685 54.5656 46.8153 62.4341 38.2126 57.8056C35.2017 55.9542 34.3415 51.3256 34.7716 47.6228C35.6318 44.8457 36.9222 42.0686 39.602 40.3977" stroke="white" stroke-width="6" stroke-miterlimit="10"/>
<path d="M73.2041 24.0859C77.5957 32.9588 77.8581 43.4656 74.0257 52.6208" stroke="white" stroke-width="6" stroke-miterlimit="10"/>
<path d="M40.4968 76.2267C32.191 76.3192 24.0185 74.4678 16.7062 69.3764C10.6844 65.2107 6.81321 60.1194 3.80229 53.6394C1.22151 46.6966 0.361244 39.291 2.5119 31.8853C7.66917 15.2226 22.2936 3.65129 38.2085 2.72559C45.9509 2.72559 53.6932 4.577 60.2785 9.67764" stroke="white" stroke-width="6" stroke-miterlimit="10"/>
<path d="M61.281 14.3619C61.2164 13.8898 61.2379 13.3807 61.281 12.367C61.3025 11.881 61.3111 11.6357 61.3498 11.5154C61.5907 10.7147 62.266 10.548 62.9886 9.84912C63.3929 9.4557 63.6381 8.99747 64.1241 8.08565C64.6833 7.04423 65.1607 6.15093 65.3457 4.91048C65.4403 4.27637 65.5608 2.82764 65.6296 1.86491C65.6468 1.59182 65.6683 1.24005 65.8791 0.883658C66.2103 0.323606 66.8727 -0.0374195 67.5437 0.0042373C68.0469 0.0320085 68.6792 0.295835 68.9502 0.837373C68.9803 0.897544 69.0276 1.004 69.1308 1.76771C69.1997 2.27685 69.2341 2.53141 69.2685 2.9665C69.3502 4.04494 69.8062 5.27613 70.0427 5.90561C70.3524 6.72949 70.7438 7.7848 71.5912 8.94193C72.3654 10.0019 72.8085 10.6036 73.4236 10.8628C73.5139 10.8998 73.7462 10.9877 73.9096 11.2238C74.1032 11.4969 74.0946 11.8162 74.0688 12.418C74.03 13.3159 74.0128 13.7695 73.9999 13.8389C73.9397 14.1583 73.8365 14.4869 72.9977 15.8708C72.1977 17.19 72.0686 17.2594 71.746 17.9537C71.445 18.6017 71.2729 19.1478 71.1525 19.5459C70.9073 20.3466 70.7696 21.0548 70.6879 21.5917C70.318 21.5917 69.9438 21.5917 69.561 21.601C69.0792 21.6102 68.6104 21.6287 68.1502 21.6519C68.0727 20.953 67.991 19.8653 68.0942 18.7822C68.1114 18.6202 68.1415 18.3888 68.2018 17.9259C68.3652 16.7317 68.4211 16.5651 68.5115 16.4124C68.7523 15.9958 68.9502 16.1115 69.376 15.6533C69.5567 15.4589 70.047 14.8757 70.1417 14.0241C70.232 13.2002 69.9094 12.5614 69.6986 12.1449C69.3932 11.5385 69.2126 11.5293 68.8513 10.9785C68.2534 10.062 68.12 9.12244 67.9566 7.95605C67.8491 7.19697 67.9093 7.18309 67.806 5.7899C67.7501 5.06785 67.5824 2.75821 67.4146 2.75821C67.2555 2.75821 67.1436 4.91974 67.1221 5.73899C67.1049 6.42401 67.1049 6.73412 67.1049 6.73412C67.1049 7.24326 67.1178 7.53023 67.1049 7.89588C67.0963 8.16434 67.0834 8.39114 67.0705 8.51148C67.006 9.32147 66.9372 10.1731 66.4597 10.8304C66.1027 11.321 65.8877 11.2053 65.4575 11.8348C65.3414 12.006 65.1306 12.3208 65.0016 12.7882C64.8037 13.5103 64.9242 14.1166 64.9801 14.3805C65.0317 14.6211 65.1005 14.9544 65.3199 15.3108C65.6511 15.8477 65.9866 15.8847 66.2791 16.2411C66.6146 16.6484 66.563 17.065 66.6275 18.1897C66.7565 20.4762 67.1135 21.1798 66.7049 21.5084C66.5501 21.6287 66.5286 21.5084 65.522 21.5824C64.7908 21.6334 64.4639 21.7259 64.2919 21.5084C64.1757 21.3649 64.2274 21.1983 64.2231 20.9206C64.2231 20.504 64.0166 20.055 63.6037 19.1617C63.4316 18.7822 63.1993 18.2823 62.8122 17.6713C62.4208 17.0557 62.2918 16.9956 62.0294 16.5744C61.4444 15.6348 61.3068 14.6859 61.2637 14.3712L61.281 14.3619Z" fill="white"/>
<path d="M71.5784 24.5537H63.5005V57.2589H71.5784V24.5537Z" fill="white"/>
<path d="M71.7244 59.5732H63.354V63.1835H71.7244V59.5732Z" fill="white"/>
<path d="M71.5311 65.257C71.5397 65.4421 71.544 65.7708 71.4966 66.1734C71.4063 66.9788 71.1698 67.562 71.088 67.7703C69.5998 71.5703 69.3503 73.9123 69.3503 73.9123C69.2514 74.565 69.161 75.2639 68.7696 75.773C68.4255 76.2266 67.862 76.4719 67.3244 76.4164C66.7824 76.3608 66.2792 76.0137 65.9953 75.5184C65.6426 74.8982 65.5866 74.2919 65.5651 73.9725C65.5221 73.2643 64.8683 71.325 63.5693 67.4463C63.4102 66.9695 63.393 66.4511 63.2897 65.9559C63.2381 65.706 63.165 65.3866 63.3113 65.2385C63.393 65.1598 63.5048 65.169 63.6984 65.1737C63.978 65.1829 64.2618 65.1413 64.5414 65.1737C65.3544 65.2616 67.333 65.2477 67.4276 65.2477C68.8427 65.2385 69.1008 65.095 70.4084 65.1644C70.8859 65.1922 71.2816 65.2338 71.5354 65.2616L71.5311 65.257Z" fill="white"/>
<path d="M66.292 13.4775C66.292 14.2042 66.8426 14.8291 67.5308 14.8383C68.2319 14.8476 68.7997 14.2135 68.7997 13.4775C68.7997 12.774 68.2749 12.1676 67.6211 12.126C66.9157 12.0843 66.2963 12.7092 66.2963 13.4775H66.292Z" fill="white"/>
</svg>
