<svg width="142" height="142" viewBox="0 0 142 142" fill="none" xmlns="http://www.w3.org/2000/svg">
<g clip-path="url(#clip0_254_53)">
<path d="M112.714 126.294C104.805 133.043 96.191 137.256 86.7942 138.941C76.6145 140.627 67.2178 138.099 58.6041 133.886C43.726 126.302 32.7631 111.977 29.6309 94.2821C26.4987 74.0589 35.8954 55.5211 51.5566 45.4095C57.038 42.039 63.3025 39.5111 70.35 40.3537C89.9265 42.8816 109.503 60.5769 106.371 82.4852C104.805 99.3378 85.2281 113.663 69.5669 105.236C64.0855 101.866 62.5194 93.4394 63.3025 86.6984C64.8686 81.6426 67.2178 76.5868 72.0962 73.5449" stroke="white" stroke-width="4" stroke-miterlimit="10"/>
<path d="M133.269 43.8506C141.264 60.0038 141.742 79.1315 134.765 95.7987" stroke="white" stroke-width="4" stroke-miterlimit="10"/>
<path d="M73.7251 138.773C58.6042 138.941 43.7261 135.571 30.414 126.302C19.4512 118.718 12.4037 109.449 6.92226 97.6522C2.22391 85.0127 0.657786 71.5307 4.57308 58.0486C13.962 27.7139 40.586 6.64815 69.5592 4.96289C83.6543 4.96289 97.7493 8.33341 109.738 17.6192" stroke="white" stroke-width="4" stroke-miterlimit="10"/>
<path d="M111.562 26.1463C111.445 25.2868 111.484 24.3599 111.562 22.5145C111.602 21.6298 111.617 21.1832 111.688 20.9641C112.126 19.5063 113.356 19.203 114.671 17.9306C115.407 17.2144 115.854 16.3802 116.738 14.7202C117.756 12.8243 118.626 11.198 118.962 8.93977C119.135 7.78536 119.354 5.14793 119.479 3.39526C119.51 2.89811 119.55 2.25771 119.933 1.60889C120.536 0.589304 121.742 -0.0679474 122.964 0.00788935C123.88 0.0584471 125.031 0.538746 125.524 1.52462C125.579 1.63417 125.665 1.82797 125.853 3.21831C125.979 4.1452 126.041 4.60865 126.104 5.40072C126.253 7.36405 127.083 9.60544 127.513 10.7514C128.077 12.2513 128.79 14.1725 130.332 16.2791C131.742 18.2087 132.548 19.3041 133.668 19.776C133.833 19.8434 134.255 20.0035 134.553 20.4332C134.905 20.9304 134.89 21.5118 134.843 22.6072C134.772 24.2419 134.741 25.0677 134.717 25.1941C134.608 25.7755 134.42 26.3738 132.893 28.8932C131.436 31.2947 131.202 31.4211 130.614 32.6851C130.066 33.8648 129.753 34.8591 129.534 35.5837C129.087 37.0415 128.837 38.3307 128.688 39.3082C128.014 39.3082 127.333 39.3081 126.636 39.325C125.759 39.3419 124.906 39.3756 124.068 39.4177C123.927 38.1453 123.778 36.1651 123.966 34.1934C123.997 33.8985 124.052 33.4772 124.162 32.6345C124.459 30.4605 124.561 30.1572 124.726 29.8791C125.164 29.1208 125.524 29.3314 126.3 28.4972C126.628 28.1433 127.521 27.0816 127.693 25.5312C127.858 24.0313 127.271 22.8684 126.887 22.1101C126.331 21.0062 126.002 20.9894 125.344 19.9866C124.256 18.3182 124.013 16.6077 123.715 14.4843C123.52 13.1024 123.629 13.0771 123.441 10.5408C123.34 9.22626 123.034 5.02154 122.729 5.02154C122.439 5.02154 122.236 8.95662 122.196 10.4481C122.165 11.6952 122.165 12.2597 122.165 12.2597C122.165 13.1866 122.189 13.7091 122.165 14.3747C122.149 14.8635 122.126 15.2763 122.102 15.4954C121.985 16.97 121.86 18.5205 120.99 19.717C120.341 20.6102 119.949 20.3995 119.166 21.5455C118.954 21.8573 118.571 22.4303 118.336 23.2813C117.976 24.5958 118.195 25.6997 118.297 26.18C118.391 26.6181 118.516 27.2248 118.915 27.8737C119.518 28.8511 120.129 28.9185 120.662 29.5673C121.272 30.3089 121.178 31.0672 121.296 33.1148C121.531 37.2774 122.181 38.5582 121.437 39.1565C121.155 39.3756 121.116 39.1565 119.283 39.2913C117.952 39.384 117.357 39.5525 117.044 39.1565C116.832 38.8953 116.926 38.5919 116.919 38.0863C116.919 37.328 116.543 36.5106 115.791 34.8843C115.478 34.1934 115.055 33.2833 114.35 32.1711C113.638 31.0504 113.403 30.9408 112.925 30.174C111.86 28.4635 111.609 26.7361 111.531 26.1631L111.562 26.1463Z" fill="white"/>
<path d="M130.309 44.7012H115.603V104.241H130.309V44.7012Z" fill="white"/>
<path d="M130.575 108.454H115.337V115.027H130.575V108.454Z" fill="white"/>
<path d="M130.223 118.802C130.238 119.139 130.246 119.737 130.16 120.47C129.996 121.936 129.565 122.998 129.416 123.377C126.707 130.295 126.253 134.559 126.253 134.559C126.072 135.747 125.908 137.019 125.195 137.946C124.569 138.772 123.543 139.219 122.564 139.117C121.578 139.016 120.662 138.384 120.145 137.483C119.503 136.354 119.401 135.25 119.362 134.668C119.283 133.379 118.093 129.848 115.728 122.787C115.439 121.919 115.407 120.976 115.219 120.074C115.125 119.619 114.992 119.038 115.258 118.768C115.407 118.625 115.611 118.641 115.963 118.65C116.472 118.667 116.989 118.591 117.498 118.65C118.978 118.81 122.58 118.785 122.752 118.785C125.329 118.768 125.798 118.507 128.179 118.633C129.048 118.684 129.768 118.759 130.23 118.81L130.223 118.802Z" fill="white"/>
<path d="M120.685 24.5373C120.685 25.8602 121.687 26.9978 122.94 27.0146C124.217 27.0315 125.25 25.8771 125.25 24.5373C125.25 23.2565 124.295 22.1527 123.105 22.0768C121.821 22.001 120.693 23.1385 120.693 24.5373H120.685Z" fill="white"/>
</g>
<defs>
<clipPath id="clip0_254_53">
<rect width="142" height="142" fill="white"/>
</clipPath>
</defs>
</svg>
