<svg width="78" height="78" viewBox="0 0 78 78" fill="none" xmlns="http://www.w3.org/2000/svg">
<g clip-path="url(#clip0_497_2)">
<path d="M60.4186 69.4678C54.4635 75.0598 46.5247 77.7304 39.0059 76.111" stroke="white" stroke-width="6" stroke-miterlimit="10"/>
<path d="M67.8333 61.1104C65.7496 64.2923 63.254 67.2233 60.4185 69.4724" stroke="white" stroke-width="6" stroke-miterlimit="10"/>
<path d="M58.9028 8.39941C62.6503 11.0605 65.9377 14.6165 68.4814 18.8259" stroke="white" stroke-width="6" stroke-miterlimit="10"/>
<path d="M12.5059 16.1983C23.8721 0.861564 44.6689 -3.87346 58.9027 8.39972" stroke="white" stroke-width="6" stroke-miterlimit="10"/>
<path d="M40.5056 76.4847C30.3192 76.6125 20.0727 72.8435 12.7699 64.1452C10.9581 61.9908 9.39439 59.5665 8.05859 56.9717" stroke="white" stroke-width="6" stroke-miterlimit="10"/>
<path d="M47.6168 13.6133L30.7954 65.2913" stroke="white" stroke-width="6" stroke-miterlimit="10"/>
<path d="M0.631836 41.0002L27.9876 21.0137" stroke="white" stroke-width="6" stroke-miterlimit="10"/>
<path d="M0.631836 39.6797L27.9876 59.6615" stroke="white" stroke-width="6" stroke-miterlimit="10"/>
<path d="M77.372 42.4494L50.0122 22.4629" stroke="white" stroke-width="6" stroke-miterlimit="10"/>
<path d="M77.372 41.123L50.0122 61.1096" stroke="white" stroke-width="6" stroke-miterlimit="10"/>
</g>
<defs>
<clipPath id="clip0_497_2">
<rect width="78" height="78" fill="white"/>
</clipPath>
</defs>
</svg>
