<svg width="146" height="146" viewBox="0 0 146 146" fill="none" xmlns="http://www.w3.org/2000/svg">
<path d="M89.0141 3.56348C123.079 13.7352 145.563 43.4693 143.915 75.4689C142.387 105.094 119.683 130.781 88.2329 140.093L95.1784 143.999" stroke="white" stroke-width="4" stroke-miterlimit="10"/>
<path d="M95.1944 144C95.1944 144 90.4056 141.391 87.4678 139.75L92.0358 133.297" stroke="white" stroke-width="4" stroke-miterlimit="10"/>
<path d="M56.9862 142.436C22.9212 132.264 0.437627 102.53 2.08484 70.5304C3.61318 40.9058 26.3005 15.2342 57.7673 5.9062L50.8049 2" stroke="white" stroke-width="4" stroke-miterlimit="10"/>
<path d="M50.8047 2C50.8047 2 55.5935 4.60934 58.5313 6.24995L53.9633 12.703" stroke="white" stroke-width="4" stroke-miterlimit="10"/>
<path d="M44.2329 73.499L67.4297 94.6238" stroke="white" stroke-width="4" stroke-miterlimit="10"/>
<path d="M109.358 49.7031L65.6812 94.7338" stroke="white" stroke-width="4" stroke-miterlimit="10"/>
</svg>
