<svg width="78" height="78" viewBox="0 0 78 78" fill="none" xmlns="http://www.w3.org/2000/svg">
<g clip-path="url(#clip0_497_15)">
<path d="M29.298 4.27441C12.9934 9.03658 1.62649 22.3831 0.837088 37.5278C-0.0132428 53.8817 11.6397 69.0841 29.298 74.2838" stroke="white" stroke-width="6" stroke-miterlimit="10"/>
<path d="M21.9629 0.641602L29.8278 4.27393" stroke="white" stroke-width="6" stroke-miterlimit="10"/>
<path d="M24.7207 11.5343C26.13 9.11351 27.5419 6.69516 28.9512 4.27441" stroke="white" stroke-width="6" stroke-miterlimit="10"/>
<path d="M48.7021 74.2833C65.0068 69.5211 76.3737 56.1745 77.1631 41.0274C78.0134 24.6736 66.3604 9.47116 48.7021 4.27148" stroke="white" stroke-width="6" stroke-miterlimit="10"/>
<path d="M56.3971 77.3555L48.5322 73.7256" stroke="white" stroke-width="6" stroke-miterlimit="10"/>
<path d="M53.2793 67.0234C51.87 69.4442 50.4581 71.8625 49.0488 74.2833" stroke="white" stroke-width="6" stroke-miterlimit="10"/>
<path d="M22.0054 40.0566L36.2199 52.8263" stroke="white" stroke-width="6" stroke-miterlimit="10"/>
<path d="M61.9152 25.6641L35.147 52.8909" stroke="white" stroke-width="6" stroke-miterlimit="10"/>
</g>
<defs>
<clipPath id="clip0_497_15">
<rect width="78" height="78" fill="white"/>
</clipPath>
</defs>
</svg>
