<svg width="146" height="146" viewBox="0 0 146 146" fill="none" xmlns="http://www.w3.org/2000/svg">
<g clip-path="url(#clip0_517_45)">
<path d="M56.1205 139.7C23.1018 129.774 1.30886 100.758 2.90547 69.5308C4.38687 40.6216 26.3774 15.5699 56.8777 6.46715L50.1291 2.65527" stroke="white" stroke-width="4" stroke-miterlimit="10"/>
<path d="M50.1289 2.65527C50.1289 2.65527 54.7706 5.20161 57.6182 6.80259L53.1905 13.0998" stroke="white" stroke-width="4" stroke-miterlimit="10"/>
<path d="M89.8797 6.2998C122.898 16.2259 144.691 45.2419 143.095 76.4688C141.613 105.378 119.606 130.445 89.1226 139.532L95.8547 143.344" stroke="white" stroke-width="4" stroke-miterlimit="10"/>
<path d="M95.8711 143.344C95.8711 143.344 91.2294 140.798 88.3818 139.197L92.8096 132.899" stroke="white" stroke-width="4" stroke-miterlimit="10"/>
<path d="M60.8279 24.7939C37.5206 31.7925 22.147 52.2852 23.2663 74.3178C24.3033 94.719 39.8415 112.406 61.3546 118.825L56.5977 121.524" stroke="white" stroke-width="4" stroke-miterlimit="10"/>
<path d="M56.6143 121.509C56.6143 121.509 59.8898 119.71 61.8979 118.582L58.7705 114.145" stroke="white" stroke-width="4" stroke-miterlimit="10"/>
<path d="M84.6454 118.932C107.953 111.934 123.326 91.4411 122.207 69.4084C121.17 49.0073 105.632 31.3202 84.1187 24.901L88.8756 22.2021" stroke="white" stroke-width="4" stroke-miterlimit="10"/>
<path d="M88.8754 22.2178C88.8754 22.2178 85.5999 24.017 83.5918 25.1453L86.7192 29.5823" stroke="white" stroke-width="4" stroke-miterlimit="10"/>
<path d="M72.3667 45.7295H72.3502C57.4053 45.7295 45.29 56.9523 45.29 70.7964V70.8116C45.29 84.6557 57.4053 95.8785 72.3502 95.8785H72.3667C87.3116 95.8785 99.4268 84.6557 99.4268 70.8116V70.7964C99.4268 56.9523 87.3116 45.7295 72.3667 45.7295Z" fill="white"/>
</g>
<defs>
<clipPath id="clip0_517_45">
<rect width="146" height="146" fill="white"/>
</clipPath>
</defs>
</svg>
