<?xml version="1.0" encoding="UTF-8"?>
<svg id="Layer_2" data-name="Layer 2" xmlns="http://www.w3.org/2000/svg" viewBox="0 0 456.49 594.34">
  <defs>
    <style>
      .cls-1 {
        fill: #fff;
      }

      .cls-2 {
        fill: none;
        stroke: #fff;
        stroke-miterlimit: 10;
        stroke-width: 30px;
      }
    </style>
  </defs>
  <g id="Lag_1" data-name="Lag 1">
    <g>
      <path class="cls-1" d="M52.33,556.34c-13.89,0-24.83-2.89-32.83-8.67-8-5.78-12.39-13.83-13.17-24.17h18.5c.78,6.11,3.44,10.61,8,13.5,4.55,2.89,11.28,4.33,20.17,4.33,15.55,0,23.33-4.89,23.33-14.67,0-4-1.2-7.08-3.58-9.25-2.39-2.17-6.42-3.75-12.08-4.75l-21.83-4c-18.56-3.44-27.83-12.28-27.83-26.5,0-9.22,3.5-16.5,10.5-21.83s16.55-8,28.67-8,22.53,2.72,29.92,8.17c7.39,5.45,11.58,13.11,12.58,23h-18.17c-1.11-5.55-3.7-9.67-7.75-12.33-4.06-2.67-9.75-4-17.08-4-6.78,0-12.03,1.17-15.75,3.5-3.72,2.33-5.58,5.72-5.58,10.17,0,3.45,1.19,6.14,3.58,8.08,2.39,1.95,6.25,3.42,11.58,4.42l21.83,4.17c9.78,1.78,16.94,4.95,21.5,9.5,4.55,4.56,6.83,10.67,6.83,18.33,0,9.78-3.56,17.39-10.67,22.83-7.11,5.45-17.33,8.17-30.67,8.17Z"/>
      <path class="cls-1" d="M117.5,594.34v-120.67h-9.67v-19.33h20v15.33h7c3.33-5.67,7.89-9.97,13.67-12.92,5.78-2.94,12.67-4.42,20.67-4.42,10.11,0,18.67,2.11,25.67,6.33,7,4.22,12.36,10.22,16.08,18,3.72,7.78,5.58,17,5.58,27.67s-1.83,19.89-5.5,27.67c-3.67,7.78-8.92,13.78-15.75,18-6.83,4.22-14.97,6.33-24.42,6.33-7.89,0-14.78-1.58-20.67-4.75-5.89-3.17-10.33-7.64-13.33-13.42h-.67v56.17h-18.67ZM166.33,540.34c10,0,17.75-3.17,23.25-9.5,5.5-6.33,8.25-15.17,8.25-26.5s-2.75-20.17-8.25-26.5c-5.5-6.33-13.25-9.5-23.25-9.5-9.11,0-16.42,2.61-21.92,7.83-5.5,5.22-8.25,12.17-8.25,20.83v14.67c0,8.67,2.75,15.61,8.25,20.83,5.5,5.22,12.8,7.83,21.92,7.83Z"/>
      <path class="cls-1" d="M248.16,440.67c-3.11,0-5.78-1.11-8-3.33-2.22-2.22-3.33-4.89-3.33-8s1.11-5.78,3.33-8,4.89-3.33,8-3.33,5.78,1.11,8,3.33c2.22,2.22,3.33,4.89,3.33,8s-1.11,5.78-3.33,8-4.89,3.33-8,3.33ZM238.83,554.34v-100h18.67v100h-18.67Z"/>
      <path class="cls-1" d="M291.66,554.34v-80.67h-9.67v-19.33h20v18.67h7c2.78-6.11,7.08-10.89,12.92-14.33,5.83-3.44,12.69-5.17,20.58-5.17h8.17v16h-9.17c-10,0-17.72,2.95-23.17,8.83-5.45,5.89-8.17,13.83-8.17,23.83v52.17h-18.5Z"/>
      <path class="cls-1" d="M394.49,556.17c-11.33,0-20.25-2.8-26.75-8.42-6.5-5.61-9.75-12.97-9.75-22.08s3.22-16.97,9.67-22.25c6.44-5.28,15.72-7.92,27.83-7.92h34.17v-4.5c0-15.44-8.5-23.17-25.5-23.17-13.89,0-22.28,5.22-25.17,15.67h-18.83c1.67-9.89,6.42-17.55,14.25-23,7.83-5.44,17.86-8.17,30.08-8.17,13.89,0,24.53,3.28,31.92,9.83,7.39,6.56,11.08,16,11.08,28.33v44.5h9v19.33h-20v-15.33h-7c-3.45,5.33-8.17,9.53-14.17,12.58s-12.95,4.58-20.83,4.58ZM396.99,541.17c6,0,11.5-1.22,16.5-3.67,5-2.44,8.94-5.78,11.83-10,2.89-4.22,4.33-8.83,4.33-13.83v-4.5h-33c-14,0-21,5.22-21,15.67,0,5,1.89,8.97,5.67,11.92,3.78,2.95,9,4.42,15.67,4.42Z"/>
    </g>
    <path class="cls-2" d="M15,243.71c.19-10.97,4.23-131.71,102.15-194.7C175.66,11.37,236.42,14.46,251,15.56c23.17,1.75,77.23,5.84,121.58,49.53,48.81,48.08,50.93,109.72,50.94,125.35.01,16.46-.57,59.51-30.68,99.81-44.09,59.02-114.56,62.65-126.09,63.04-20.3.7-73.92,2.54-111.83-39.03-38.45-42.17-30.94-96.16-30.02-102.07,9.51-60.94,61.08-88.94,70.55-93.81,11.05-5.69,43.06-22.16,81.81-12.01,10.42,2.73,35.33,11.06,54.04,35.27,7.6,9.84,29.67,42.27,18.76,78.05-12.28,40.28-60.52,71.11-96.07,56.29-23.58-9.83-41.92-40.33-35.27-64.54,1.07-3.91,6.12-19.78,21.93-26.48,12.06-5.12,23.38-1.93,26.94-.77"/>
    <path class="cls-1" d="M301.28,202.44c-5.81-8.72-11.23-16.04-15.83-21.97-2.65-3.41-6.49-8.24-13.03-10.48-.11-.04-.2-.07-.26-.09l-25.64,28.88c.34-.11.87-.26,1.52-.35.64-.08.86-.04,2.34-.03,1.15,0,1.06-.01,2.2,0,.83,0,.92.02,1.85.02.96,0,.96,0,1.31.01.37.02.8.05,1.55.08.1,0,.17,0,.26.01.48.02.84.01,1.04,0,.65,0,1.25-.04,1.63-.05.25,0,.57-.02,2.05.02,1.48.03,2.66.07,2.8.08,1.78.07,16.3,1.55,36.2,3.87Z"/>
    <path class="cls-1" d="M26.78,306.85c.12-21.37.54-36.93.71-39.33.01-.16.13-1.69.29-3.68.13-1.57.2-2.35.27-2.97.24-2.18.4-2.54.75-5.36.12-.95.07-.69.27-2.34.28-2.36.43-3.54.54-4.3.11-.72.18-1.07.22-1.69.04-.54.03-.92.09-1.83.01-.22.03-.44.04-.65.02-.3.03-.48.03-.74,0-.15,0-.27,0-.36-10-.08-20-.16-30-.23,0,.14.02.35.04.6.36,5.08,1.49,13.45,6.84,26.37,6.93,16.74,17.61,33.06,19.9,36.51Z"/>
  </g>
</svg>