<?xml version="1.0" encoding="UTF-8"?>
<svg id="Layer_2" data-name="Layer 2" xmlns="http://www.w3.org/2000/svg" viewBox="0 0 438.52 368.54">
  <defs>
    <style>
      .cls-1 {
        fill: #fff;
      }

      .cls-2 {
        fill: none;
        stroke: #fff;
        stroke-miterlimit: 10;
        stroke-width: 30px;
      }
    </style>
  </defs>
  <g id="Lag_1" data-name="Lag 1">
    <path class="cls-2" d="M15,243.71c.19-10.97,4.23-131.71,102.15-194.7C175.66,11.37,236.42,14.46,251,15.56c23.17,1.75,77.23,5.84,121.58,49.53,48.81,48.08,50.93,109.72,50.94,125.35.01,16.46-.57,59.51-30.68,99.81-44.09,59.02-114.56,62.65-126.09,63.04-20.3.7-73.92,2.54-111.83-39.03-38.45-42.17-30.94-96.16-30.02-102.07,9.51-60.94,61.08-88.94,70.55-93.81,11.05-5.69,43.06-22.16,81.81-12.01,10.42,2.73,35.33,11.06,54.04,35.27,7.6,9.84,29.67,42.27,18.76,78.05-12.28,40.28-60.52,71.11-96.07,56.29-23.58-9.83-41.92-40.33-35.27-64.54,1.07-3.91,6.12-19.78,21.93-26.48,12.06-5.12,23.38-1.93,26.94-.77"/>
    <path class="cls-1" d="M301.28,202.44c-5.81-8.72-11.23-16.04-15.83-21.97-2.65-3.41-6.49-8.24-13.03-10.48-.11-.04-.2-.07-.26-.09l-25.64,28.88c.34-.11.87-.26,1.52-.35.64-.08.86-.04,2.34-.03,1.15,0,1.06-.01,2.2,0,.83,0,.92.02,1.85.02.96,0,.96,0,1.31.01.37.02.8.05,1.55.08.1,0,.17,0,.26.01.48.02.84.01,1.04,0,.65,0,1.25-.04,1.63-.05.25,0,.57-.02,2.05.02,1.48.03,2.66.07,2.8.08,1.78.07,16.3,1.55,36.2,3.87Z"/>
    <path class="cls-1" d="M26.78,306.85c.12-21.37.54-36.93.71-39.33.01-.16.13-1.69.29-3.68.13-1.57.2-2.35.27-2.97.24-2.18.4-2.54.75-5.36.12-.95.07-.69.27-2.34.28-2.36.43-3.54.54-4.3.11-.72.18-1.07.22-1.69.04-.54.03-.92.09-1.83.01-.22.03-.44.04-.65.02-.3.03-.48.03-.74,0-.15,0-.27,0-.36-10-.08-20-.16-30-.23,0,.14.02.35.04.6.36,5.08,1.49,13.45,6.84,26.37,6.93,16.74,17.61,33.06,19.9,36.51Z"/>
  </g>
</svg>